<svg width="163" height="33" viewBox="0 0 163 33" fill="none" xmlns="http://www.w3.org/2000/svg">
<path d="M15.6953 33C25.0783 33 29.0874 26.3018 30.0684 21.9256L23.6282 20.0054C23.0311 22.2828 20.9412 25.9445 15.6953 25.9445C11.1744 25.9445 6.99463 22.5061 6.99463 16.567C6.99463 9.9134 11.5582 6.87686 15.61 6.87686C20.9412 6.87686 22.8605 10.5832 23.3297 12.7713L29.6845 10.6725C28.7036 6.11773 24.6945 0 15.61 0C7.16523 0 0 6.69824 0 16.567C0 26.4357 6.99463 33 15.6953 33ZM43.3256 26.7483C40.8945 26.7483 38.5487 24.9175 38.5487 21.2111C38.5487 17.4601 40.8945 15.7185 43.3256 15.7185C45.7993 15.7185 48.1024 17.4601 48.1024 21.2111C48.1024 24.9621 45.7993 26.7483 43.3256 26.7483ZM43.3256 9.46685C37.0133 9.46685 32.0659 14.3342 32.0659 21.2111C32.0659 28.088 37.0133 33 43.3256 33C49.6805 33 54.5852 28.088 54.5852 21.2111C54.5852 14.3342 49.6805 9.46685 43.3256 9.46685ZM65.2411 19.6035C65.2411 17.3708 66.6059 15.7185 68.7385 15.7185C71.0842 15.7185 72.1931 17.3708 72.1931 19.5589V32.3302H78.676V18.3978C78.676 13.5304 76.2875 9.55616 70.9563 9.55616C68.7811 9.55616 66.1794 10.5832 65.0279 12.682V10.1367H58.7583V32.3302H65.2411V19.6035ZM91.8856 3.66171H86.0851V6.51962C86.0851 8.57375 85.0194 10.1367 82.8014 10.1367H81.7351V16.0758H85.488V25.5873C85.488 30.0081 88.1755 32.7321 92.568 32.7321C94.6152 32.7321 95.6819 32.2409 95.9378 32.1069V26.4804C95.5535 26.5697 94.9142 26.7037 94.2318 26.7037C92.8239 26.7037 91.8856 26.2124 91.8856 24.3816V16.0758H96.0231V10.1367H91.8856V3.66171ZM113.845 10.1367C113.418 10.0027 112.778 9.9134 112.139 9.9134C110.433 9.9134 107.745 10.6279 106.637 13.1286V10.1367H100.367V32.3302H106.85V22.6401C106.85 18.2192 109.196 16.6116 111.798 16.6116C112.437 16.6116 113.119 16.6563 113.845 16.8349V10.1367ZM127.251 26.7483C124.821 26.7483 122.474 24.9175 122.474 21.2111C122.474 17.4601 124.821 15.7185 127.251 15.7185C129.725 15.7185 132.028 17.4601 132.028 21.2111C132.028 24.9621 129.725 26.7483 127.251 26.7483ZM127.251 9.46685C120.939 9.46685 115.991 14.3342 115.991 21.2111C115.991 28.088 120.939 33 127.251 33C133.606 33 138.511 28.088 138.511 21.2111C138.511 14.3342 133.606 9.46685 127.251 9.46685ZM149.167 32.3302V0H142.684V32.3302H149.167ZM154.257 28.1326C154.257 30.5886 156.219 32.7321 158.608 32.7321C160.996 32.7321 163 30.5886 163 28.1326C163 25.6319 160.996 23.5778 158.608 23.5778C156.219 23.5778 154.257 25.6319 154.257 28.1326Z" fill="#696969"/>
</svg>
