<svg width="69" height="61" viewBox="0 0 69 61" fill="none" xmlns="http://www.w3.org/2000/svg">
<path d="M43.1292 16.1995L29.0417 9.5108C23.4843 6.87218 16.8188 9.19388 14.1539 14.6965L4.82514 33.9589C2.16025 39.4615 4.50508 46.0612 10.0625 48.6998L24.15 55.3885C29.7074 58.0272 36.3729 55.7055 39.0378 50.2029L48.3665 30.9405C51.0314 25.4379 48.6866 18.8381 43.1292 16.1995Z" fill="#D9D9D9"/>
<path d="M50.7535 14.0821L36.6659 7.39336C31.1085 4.75475 24.4431 7.07645 21.7782 12.579L12.4494 31.8414C9.78452 37.344 12.1293 43.9438 17.6867 46.5824L31.7743 53.2711C37.3317 55.9097 43.9971 53.588 46.662 48.0854L55.9908 28.823C58.6557 23.3204 56.3109 16.7207 50.7535 14.0821Z" fill="#C8C8C8"/>
<path d="M58.9373 11.8722L44.8498 5.18346C39.2924 2.54485 32.6269 4.86655 29.962 10.3691L20.6333 29.6315C17.9684 35.1341 20.3132 41.7339 25.8706 44.3725L39.9581 51.0612C45.5155 53.6998 52.181 51.3781 54.8459 45.8755L64.1746 26.6131C66.8395 21.1105 64.4947 14.5108 58.9373 11.8722Z" fill="#929292"/>
<path d="M58.9373 11.8722L44.8498 5.18346C39.2924 2.54485 32.6269 4.86655 29.962 10.3691L20.6333 29.6315C17.9684 35.1341 20.3132 41.7339 25.8706 44.3725L39.9581 51.0612C45.5155 53.6998 52.181 51.3781 54.8459 45.8755L64.1746 26.6131C66.8395 21.1105 64.4947 14.5108 58.9373 11.8722Z" fill="#929292"/>
</svg>
