<svg width="358" height="154" viewBox="0 0 358 154" fill="none" xmlns="http://www.w3.org/2000/svg">
<path d="M68.256 48.4531L46.2466 37.8991C37.5641 33.7357 27.1504 37.3991 22.9869 46.0815L8.41231 76.4755C4.24886 85.158 7.91226 95.5717 16.5947 99.7352L38.6042 110.289C47.2867 114.453 57.7004 110.789 61.8638 102.107L76.4385 71.7128C80.6019 63.0303 76.9385 52.6166 68.256 48.4531Z" fill="#D9D9D9"/>
<path d="M80.168 45.1121L58.1586 34.5581C49.4761 30.3946 39.0624 34.058 34.8989 42.7405L20.3243 73.1345C16.1608 81.817 19.8242 92.2307 28.5067 96.3942L50.5162 106.948C59.1987 111.112 69.6124 107.448 73.7758 98.7658L88.3504 68.3718C92.5139 59.6893 88.8505 49.2756 80.168 45.1121Z" fill="#C8C8C8"/>
<path d="M92.9537 41.6251L70.9443 31.0711C62.2618 26.9076 51.8481 30.571 47.6846 39.2535L33.11 69.6475C28.9466 78.33 32.61 88.7437 41.2925 92.9071L63.3019 103.461C71.9844 107.625 82.3981 103.961 86.5615 95.2788L101.136 64.8848C105.3 56.2023 101.636 45.7886 92.9537 41.6251Z" fill="#929292"/>
<path d="M160.119 60.4018C158.594 52.7769 152.303 42.8645 135.91 42.8645C123.138 42.8645 112.368 52.0144 112.368 64.0237C112.368 74.222 119.326 81.1798 130.096 83.3719L139.532 85.2782C144.774 86.3266 147.728 89.3766 147.728 93.2844C147.728 98.0499 143.821 101.576 136.768 101.576C127.236 101.576 122.566 95.5718 121.994 88.9L109.794 92.1406C110.843 101.767 118.754 113.3 136.672 113.3C152.399 113.3 161.072 102.816 161.072 92.4266C161.072 82.8954 154.496 74.8892 142.2 72.5064L132.765 70.6955C127.808 69.7424 125.426 66.7877 125.426 63.0705C125.426 58.5909 129.619 54.4925 136.005 54.4925C144.583 54.4925 147.633 60.3065 148.3 64.0237L160.119 60.4018ZM187.321 50.966H175.884V57.5425C175.884 61.7362 173.596 64.9768 168.64 64.9768H166.257V76.2236H174.74V98.0499C174.74 107.105 180.459 112.537 189.609 112.537C193.326 112.537 195.613 111.87 196.757 111.394V100.909C196.09 101.1 194.374 101.291 192.849 101.291C189.227 101.291 187.321 99.9562 187.321 95.8578V76.2236H196.757V64.9768H187.321V50.966ZM204.945 99.0984C204.945 106.437 211.044 113.205 221.052 113.205C228.01 113.205 232.49 109.964 234.872 106.247C234.872 108.058 235.063 110.631 235.349 111.87H246.977C246.691 110.25 246.405 106.914 246.405 104.436V81.3704C246.405 71.9345 240.877 63.5471 226.008 63.5471C213.427 63.5471 206.66 71.6486 205.898 78.9876L217.144 81.3704C217.526 77.272 220.576 73.7455 226.104 73.7455C231.441 73.7455 234.015 76.5095 234.015 79.8454C234.015 81.4657 233.157 82.8001 230.488 83.1813L218.955 84.8969C211.14 86.0407 204.945 90.7109 204.945 99.0984ZM223.721 103.769C219.623 103.769 217.621 101.1 217.621 98.3359C217.621 94.714 220.194 92.9031 223.435 92.4266L234.015 90.8062V92.9031C234.015 101.195 229.058 103.769 223.721 103.769ZM280.061 75.2704C286.351 75.2704 289.306 79.2735 290.45 83.1813L301.792 79.3688C299.79 71.458 292.546 63.5471 279.775 63.5471C266.145 63.5471 255.47 73.9361 255.47 88.4235C255.47 102.816 266.336 113.3 280.156 113.3C292.642 113.3 299.981 105.294 302.078 97.4781L290.926 93.7609C289.878 97.3828 286.637 101.672 280.156 101.672C273.675 101.672 268.147 96.9062 268.147 88.4235C268.147 79.9407 273.579 75.2704 280.061 75.2704ZM356.863 64.9768H340.279L324.076 82.4188V42.8645H311.4V111.87H324.076V99.4796L329.318 93.9515L341.709 111.87H357.244L338.087 84.7063L356.863 64.9768Z" fill="black"/>
</svg>
