<svg width="358" height="154" viewBox="0 0 308 104" fill="none" xmlns="http://www.w3.org/2000/svg">
<rect x="26.2622" y="11.8744" width="51" height="59" rx="15" transform="rotate(25.6188 26.2622 11.8744)" fill="#D9D9D9"/>
<rect x="36.5105" y="9" width="51" height="59" rx="15" transform="rotate(25.6188 36.5105 9)" fill="#C8C8C8"/>
<rect x="47.5105" y="6" width="51" height="59" rx="15" transform="rotate(25.6188 47.5105 6)" fill="#929292"/>
<path d="M137.756 37.72C136.444 31.16 131.032 22.632 116.928 22.632C105.94 22.632 96.674 30.504 96.674 40.836C96.674 49.61 102.66 55.596 111.926 57.482L120.044 59.122C124.554 60.024 127.096 62.648 127.096 66.01C127.096 70.11 123.734 73.144 117.666 73.144C109.466 73.144 105.448 67.978 104.956 62.238L94.46 65.026C95.362 73.308 102.168 83.23 117.584 83.23C131.114 83.23 138.576 74.21 138.576 65.272C138.576 57.072 132.918 50.184 122.34 48.134L114.222 46.576C109.958 45.756 107.908 43.214 107.908 40.016C107.908 36.162 111.516 32.636 117.01 32.636C124.39 32.636 127.014 37.638 127.588 40.836L137.756 37.72ZM161.159 29.602H151.319V35.26C151.319 38.868 149.351 41.656 145.087 41.656H143.037V51.332H150.335V70.11C150.335 77.9 155.255 82.574 163.127 82.574C166.325 82.574 168.293 82 169.277 81.59V72.57C168.703 72.734 167.227 72.898 165.915 72.898C162.799 72.898 161.159 71.75 161.159 68.224V51.332H169.277V41.656H161.159V29.602ZM176.321 71.012C176.321 77.326 181.569 83.148 190.179 83.148C196.165 83.148 200.019 80.36 202.069 77.162C202.069 78.72 202.233 80.934 202.479 82H212.483C212.237 80.606 211.991 77.736 211.991 75.604V55.76C211.991 47.642 207.235 40.426 194.443 40.426C183.619 40.426 177.797 47.396 177.141 53.71L186.817 55.76C187.145 52.234 189.769 49.2 194.525 49.2C199.117 49.2 201.331 51.578 201.331 54.448C201.331 55.842 200.593 56.99 198.297 57.318L188.375 58.794C181.651 59.778 176.321 63.796 176.321 71.012ZM192.475 75.03C188.949 75.03 187.227 72.734 187.227 70.356C187.227 67.24 189.441 65.682 192.229 65.272L201.331 63.878V65.682C201.331 72.816 197.067 75.03 192.475 75.03ZM240.946 50.512C246.358 50.512 248.9 53.956 249.884 57.318L259.642 54.038C257.92 47.232 251.688 40.426 240.7 40.426C228.974 40.426 219.79 49.364 219.79 61.828C219.79 74.21 229.138 83.23 241.028 83.23C251.77 83.23 258.084 76.342 259.888 69.618L250.294 66.42C249.392 69.536 246.604 73.226 241.028 73.226C235.452 73.226 230.696 69.126 230.696 61.828C230.696 54.53 235.37 50.512 240.946 50.512ZM307.022 41.656H292.754L278.814 56.662V22.632H267.908V82H278.814V71.34L283.324 66.584L293.984 82H307.35L290.868 58.63L307.022 41.656Z" fill="black"/>
</svg>
