<svg width="134" height="68" viewBox="0 0 134 68" fill="none" xmlns="http://www.w3.org/2000/svg">
<g clip-path="url(#clip0_28_74)">
<mask id="mask0_28_74" style="mask-type:luminance" maskUnits="userSpaceOnUse" x="0" y="0" width="134" height="68">
<path d="M134 0H0V68H134V0Z" fill="white"/>
</mask>
<g mask="url(#mask0_28_74)">
<path d="M0 55.2136H6.5638V18.3076C7.08372 18.0897 7.34367 18.0171 7.7336 18.0171C8.7734 18.0171 9.09833 18.8888 9.09833 22.3033V55.2136H15.6621V20.8504C15.6621 19.9059 15.5972 19.1067 15.5322 18.3802C15.9871 18.1623 16.442 18.0171 16.8319 18.0171C17.8717 18.0171 18.1967 18.8888 18.1967 22.3033V55.2136H24.7605V20.8504C24.7605 14.4572 22.9408 12.423 20.1464 12.423C18.1967 12.423 16.377 13.6581 15.0773 15.8375C14.3624 13.2948 12.9327 12.423 11.048 12.423C9.29334 12.423 7.53863 13.7307 6.5638 15.8375L5.84894 12.7863H0V55.2136Z" fill="#696969"/>
<path d="M42.1724 26.5897C42.1724 15.329 38.598 12.423 34.6337 12.423C30.4094 12.423 27.0951 15.329 27.0951 26.5897V26.953H33.139C33.139 20.4144 33.5939 18.3802 34.3737 18.3802C35.2186 18.3802 35.6735 20.4144 35.6735 26.953V30.2222C28.5898 31.3846 26.5752 34.4358 26.5752 43.6623C26.5752 53.3974 28.3949 55.5768 31.1894 55.5768C32.944 55.5768 34.6987 54.2692 35.6735 52.1623L36.3884 55.2136H42.1724V26.5897ZM35.6735 35.3076V49.6923C35.1536 49.9102 34.8937 49.9828 34.5038 49.9828C33.4639 49.9828 33.139 48.5299 33.139 42.8632C33.139 36.9059 33.6589 35.5256 35.6735 35.3076Z" fill="#696969"/>
<path d="M52.1561 18.3802C53.3908 18.3802 53.8458 21.8674 53.8458 33.9999C53.8458 46.423 53.3908 49.9828 52.1561 49.9828C51.8312 49.9828 51.5062 49.9102 51.1163 49.6923V18.6709C51.5062 18.453 51.8312 18.3802 52.1561 18.3802ZM51.1163 67.9999V52.9615C52.0911 54.5598 53.5859 55.5768 55.0156 55.5768C58.33 55.5768 60.5396 52.0897 60.5396 33.9999C60.5396 15.9102 58.33 12.423 55.0156 12.423C53.3259 12.423 51.9612 13.7307 51.1163 15.7649L50.4014 12.7863H44.5525V67.9999H51.1163Z" fill="#696969"/>
<path d="M62.5764 55.2136H69.1402V0H62.5764V55.2136Z" fill="#696969"/>
<path d="M79.1242 12.423C74.4451 12.423 71.1306 15.6923 71.1306 33.9999C71.1306 52.3076 74.4451 55.5768 79.1242 55.5768C83.0235 55.5768 86.1429 52.3076 86.4029 41.4102L86.4679 38.9401H80.424L80.359 41.0469C80.164 47.5127 79.9041 49.6196 79.1242 49.6196C78.2144 49.6196 77.8244 46.3503 77.8244 35.3076H86.4679V28.9144C86.4679 15.6923 83.0235 12.423 79.1242 12.423ZM79.1242 18.3802C79.9691 18.3802 80.359 21.1409 80.424 30.2222H77.8244C77.8894 21.1409 78.2793 18.3802 79.1242 18.3802Z" fill="#696969"/>
<path d="M88.47 55.2136H95.0342V20.7777C95.4891 20.705 96.1388 20.6324 96.919 20.6324C97.5688 20.6324 98.6081 20.7777 99.5832 20.9957V12.423C97.3739 12.423 96.0092 13.8033 95.0342 17.0726L94.0592 12.7863H88.47V55.2136Z" fill="#696969"/>
<path d="M115.982 26.5897C115.982 15.329 112.407 12.423 108.443 12.423C104.219 12.423 100.905 15.329 100.905 26.5897V26.953H106.949C106.949 20.4144 107.404 18.3802 108.184 18.3802C109.028 18.3802 109.483 20.4144 109.483 26.953V30.2222C102.4 31.3846 100.385 34.4358 100.385 43.6623C100.385 53.3974 102.205 55.5768 104.999 55.5768C106.754 55.5768 108.508 54.2692 109.483 52.1623L110.198 55.2136H115.982V26.5897ZM109.483 35.3076V49.6923C108.963 49.9102 108.703 49.9828 108.313 49.9828C107.274 49.9828 106.949 48.5299 106.949 42.8632C106.949 36.9059 107.469 35.5256 109.483 35.3076Z" fill="#696969"/>
<path d="M117.777 34C117.777 52.0898 119.987 55.5769 123.301 55.5769C124.731 55.5769 126.226 54.5598 127.2 52.9615L127.72 55.2136H133.765V0H127.2V15.765C126.356 13.7308 124.991 12.4231 123.301 12.4231C119.987 12.4231 117.777 15.9102 117.777 34ZM126.161 49.9829C124.926 49.9829 124.471 46.4231 124.471 34C124.471 21.8675 124.926 18.3803 126.161 18.3803C126.485 18.3803 126.811 18.453 127.2 18.6709V49.6923C126.811 49.9102 126.485 49.9829 126.161 49.9829Z" fill="#696969"/>
</g>
</g>
<defs>
<clipPath id="clip0_28_74">
<rect width="134" height="68" fill="white"/>
</clipPath>
</defs>
</svg>
