<svg width="108" height="46" viewBox="0 0 108 46" fill="none" xmlns="http://www.w3.org/2000/svg">
<path d="M20.5912 14.4731L13.9515 11.3206C11.3322 10.077 8.19066 11.1713 6.93465 13.7647L2.53783 22.8435C1.28182 25.4369 2.38698 28.5475 5.00628 29.7912L11.646 32.9437C14.2653 34.1873 17.4069 33.093 18.6629 30.4996L23.0597 21.4208C24.3157 18.8274 23.2105 15.7168 20.5912 14.4731Z" fill="#D9D9D9"/>
<path d="M24.1847 13.4751L17.545 10.3226C14.9257 9.07896 11.7842 10.1732 10.5282 12.7667L6.13134 21.8454C4.87532 24.4389 5.98048 27.5495 8.59978 28.7931L15.2395 31.9456C17.8588 33.1892 21.0004 32.095 22.2564 29.5015L26.6532 20.4228C27.9092 17.8293 26.804 14.7187 24.1847 13.4751Z" fill="#C8C8C8"/>
<path d="M28.0419 12.4336L21.4022 9.28109C18.7829 8.03746 15.6413 9.13172 14.3853 11.7252L9.98851 20.8039C8.7325 23.3974 9.83766 26.508 12.457 27.7516L19.0967 30.9041C21.716 32.1477 24.8575 31.0535 26.1136 28.46L30.5104 19.3813C31.7664 16.7878 30.6612 13.6772 28.0419 12.4336Z" fill="#929292"/>
<path d="M48.304 18.0421C47.844 15.7646 45.9463 12.8037 41.0007 12.8037C37.1478 12.8037 33.8987 15.5368 33.8987 19.124C33.8987 22.1702 35.9976 24.2485 39.2468 24.9033L42.0933 25.4727C43.6748 25.7859 44.5661 26.6969 44.5661 27.8642C44.5661 29.2877 43.3872 30.3411 41.2595 30.3411C38.3842 30.3411 36.9753 28.5475 36.8027 26.5546L33.1223 27.5226C33.4386 30.398 35.8251 33.8428 41.2307 33.8428C45.975 33.8428 48.5916 30.7112 48.5916 27.608C48.5916 24.761 46.6076 22.3695 42.8984 21.6578L40.0518 21.1169C38.5567 20.8322 37.8378 19.9496 37.8378 18.8393C37.8378 17.5012 39.103 16.277 41.0295 16.277C43.6173 16.277 44.5374 18.0137 44.7386 19.124L48.304 18.0421ZM56.5103 15.2236H53.0599V17.188C53.0599 18.4407 52.3698 19.4087 50.8746 19.4087H50.1558V22.7681H52.7148V29.2877C52.7148 31.9923 54.44 33.6151 57.2004 33.6151C58.3217 33.6151 59.0118 33.4158 59.3568 33.2734V30.1418C59.1556 30.1987 58.638 30.2557 58.178 30.2557C57.0853 30.2557 56.5103 29.8571 56.5103 28.6329V22.7681H59.3568V19.4087H56.5103V15.2236ZM61.8268 29.6008C61.8268 31.793 63.667 33.8144 66.6861 33.8144C68.7851 33.8144 70.1365 32.8464 70.8553 31.7361C70.8553 32.277 70.9128 33.0457 70.9991 33.4158H74.507C74.4207 32.9318 74.3345 31.9354 74.3345 31.1952V24.3055C74.3345 21.487 72.6668 18.9816 68.1813 18.9816C64.3859 18.9816 62.3444 21.4016 62.1144 23.5937L65.5072 24.3055C65.6222 23.0813 66.5424 22.0279 68.21 22.0279C69.8202 22.0279 70.5966 22.8535 70.5966 23.85C70.5966 24.334 70.3378 24.7325 69.5327 24.8464L66.0536 25.3589C63.6958 25.7005 61.8268 27.0955 61.8268 29.6008ZM67.4912 30.9959C66.2548 30.9959 65.651 30.1987 65.651 29.3731C65.651 28.2912 66.4273 27.7503 67.405 27.608L70.5966 27.124V27.7503C70.5966 30.2272 69.1014 30.9959 67.4912 30.9959ZM84.4875 22.4834C86.3852 22.4834 87.2766 23.6791 87.6216 24.8464L91.0433 23.7076C90.4395 21.3446 88.2542 18.9816 84.4013 18.9816C80.2896 18.9816 77.0692 22.0848 77.0692 26.4122C77.0692 30.7112 80.3471 33.8428 84.5163 33.8428C88.283 33.8428 90.497 31.4514 91.1295 29.1169L87.7654 28.0065C87.4491 29.0884 86.4715 30.3695 84.5163 30.3695C82.5611 30.3695 80.8934 28.946 80.8934 26.4122C80.8934 23.8784 82.5323 22.4834 84.4875 22.4834ZM107.657 19.4087H102.654L97.7659 24.6186V12.8037H93.9417V33.4158H97.7659V29.7147L99.3474 28.0635L103.085 33.4158H107.772L101.993 25.3019L107.657 19.4087Z" fill="white"/>
</svg>
